<svg width="51" height="51" viewBox="0 0 51 51" fill="none" xmlns="http://www.w3.org/2000/svg">
<path d="M36.1242 23.375H19.9954L27.0079 16.3838C27.4081 15.9836 27.6329 15.4409 27.6329 14.875C27.6329 14.3091 27.4081 13.7664 27.0079 13.3663C26.6078 12.9661 26.0651 12.7413 25.4992 12.7413C24.9333 12.7413 24.3906 12.9661 23.9904 13.3663L13.3654 23.9913C13.172 24.1934 13.0203 24.4317 12.9192 24.6925C12.7066 25.2099 12.7066 25.7902 12.9192 26.3075C13.0203 26.5684 13.172 26.8067 13.3654 27.0088L23.9904 37.6338C24.188 37.8329 24.423 37.991 24.6819 38.0989C24.9409 38.2068 25.2186 38.2623 25.4992 38.2623C25.7797 38.2623 26.0574 38.2068 26.3164 38.0989C26.5753 37.991 26.8104 37.8329 27.0079 37.6338C27.2071 37.4362 27.3652 37.2012 27.4731 36.9423C27.5809 36.6833 27.6365 36.4056 27.6365 36.125C27.6365 35.8445 27.5809 35.5668 27.4731 35.3078C27.3652 35.0489 27.2071 34.8138 27.0079 34.6163L19.9954 27.625H36.1242C36.6878 27.625 37.2283 27.4011 37.6268 27.0026C38.0253 26.6041 38.2492 26.0636 38.2492 25.5C38.2492 24.9364 38.0253 24.3959 37.6268 23.9974C37.2283 23.5989 36.6878 23.375 36.1242 23.375Z" fill="white"/>
</svg>
