<svg width="398" height="849" viewBox="0 0 398 849" fill="none" xmlns="http://www.w3.org/2000/svg">
<line x1="397.5" y1="3" x2="397.5" y2="847" stroke="#333333"/>
<line x1="359.5" y1="3" x2="359.5" y2="847" stroke="#333333"/>
<path d="M378.5 3L378.5 848.5" stroke="#333333"/>
<line x1="340.5" y1="3" x2="340.5" y2="847" stroke="#333333"/>
<line x1="3" y1="96.5" x2="397" y2="96.5" stroke="#333333"/>
<line x1="3" y1="78.5" x2="397" y2="78.5" stroke="#333333"/>
<line x1="-4.37114e-08" y1="60.5" x2="397" y2="60.5" stroke="#333333"/>
<line x1="3" y1="42.5" x2="397" y2="42.5" stroke="#333333"/>
<line x1="3" y1="24.5" x2="397" y2="24.5" stroke="#333333"/>
<line x1="3" y1="6.5" x2="397" y2="6.49997" stroke="#333333"/>
<line x1="3" y1="114.5" x2="397" y2="114.5" stroke="#333333"/>
<line x1="3" y1="132.5" x2="397" y2="132.5" stroke="#333333"/>
<line x1="3" y1="150.5" x2="397" y2="150.5" stroke="#333333"/>
<line x1="3" y1="168.5" x2="397" y2="168.5" stroke="#333333"/>
<line x1="3" y1="186.5" x2="397" y2="186.5" stroke="#333333"/>
<line x1="3" y1="204.5" x2="397" y2="204.5" stroke="#333333"/>
<line x1="3" y1="222.5" x2="397" y2="222.5" stroke="#333333"/>
<line x1="3" y1="240.5" x2="397" y2="240.5" stroke="#333333"/>
<line x1="3" y1="258.5" x2="397" y2="258.5" stroke="#333333"/>
<line x1="3" y1="276.5" x2="397" y2="276.5" stroke="#333333"/>
<line x1="3" y1="294.5" x2="397" y2="294.5" stroke="#333333"/>
<line x1="3" y1="312.5" x2="397" y2="312.5" stroke="#333333"/>
<line x1="3" y1="330.5" x2="397" y2="330.5" stroke="#333333"/>
<line x1="3" y1="348.5" x2="397" y2="348.5" stroke="#333333"/>
<line x1="3" y1="366.5" x2="397" y2="366.5" stroke="#333333"/>
<line x1="3" y1="384.5" x2="397" y2="384.5" stroke="#333333"/>
<line x1="3" y1="402.5" x2="397" y2="402.5" stroke="#333333"/>
<line x1="3" y1="420.5" x2="397" y2="420.5" stroke="#333333"/>
<line x1="3" y1="438.5" x2="397" y2="438.5" stroke="#333333"/>
<line x1="3" y1="456.5" x2="397" y2="456.5" stroke="#333333"/>
<line x1="3" y1="474.5" x2="397" y2="474.5" stroke="#333333"/>
<line x1="3" y1="492.5" x2="397" y2="492.5" stroke="#333333"/>
<line x1="3" y1="510.5" x2="397" y2="510.5" stroke="#333333"/>
<line x1="3" y1="528.5" x2="397" y2="528.5" stroke="#333333"/>
<line x1="3" y1="546.5" x2="397" y2="546.5" stroke="#333333"/>
<line x1="3" y1="564.5" x2="397" y2="564.5" stroke="#333333"/>
<line x1="3" y1="582.5" x2="397" y2="582.5" stroke="#333333"/>
<line x1="3" y1="600.5" x2="397" y2="600.5" stroke="#333333"/>
<line x1="3" y1="618.5" x2="397" y2="618.5" stroke="#333333"/>
<line x1="3" y1="636.5" x2="397" y2="636.5" stroke="#333333"/>
<line x1="3" y1="654.5" x2="397" y2="654.5" stroke="#333333"/>
<line x1="3" y1="672.5" x2="397" y2="672.5" stroke="#333333"/>
<line x1="3" y1="690.5" x2="397" y2="690.5" stroke="#333333"/>
<line x1="3" y1="708.5" x2="397" y2="708.5" stroke="#333333"/>
<line x1="3" y1="726.5" x2="397" y2="726.5" stroke="#333333"/>
<line x1="3" y1="744.5" x2="397" y2="744.5" stroke="#333333"/>
<line x1="3" y1="762.5" x2="397" y2="762.5" stroke="#333333"/>
<line x1="3" y1="780.5" x2="397" y2="780.5" stroke="#333333"/>
<line x1="3" y1="798.5" x2="397" y2="798.5" stroke="#333333"/>
<line x1="3" y1="816.5" x2="397" y2="816.5" stroke="#333333"/>
<line x1="3" y1="834.5" x2="397" y2="834.5" stroke="#333333"/>
<line x1="37.5" y1="2" x2="37.5" y2="846" stroke="#333333"/>
<line x1="17.5" y1="2" x2="17.5" y2="846" stroke="#333333"/>
<line x1="55.5" y1="3" x2="55.5" y2="847" stroke="#333333"/>
<line x1="74.5" y1="3" x2="74.5" y2="847" stroke="#333333"/>
<line x1="93.5" y1="3" x2="93.5" y2="847" stroke="#333333"/>
<line x1="112.5" y1="3" x2="112.5" y2="847" stroke="#333333"/>
<line x1="131.5" y1="3" x2="131.5" y2="847" stroke="#333333"/>
<line x1="150.5" y1="2.18557e-08" x2="150.5" y2="844" stroke="#333333"/>
<line x1="169.5" y1="3" x2="169.5" y2="847" stroke="#333333"/>
<line x1="188.5" y1="3" x2="188.5" y2="847" stroke="#333333"/>
<line x1="207.5" y1="3" x2="207.5" y2="847" stroke="#333333"/>
<line x1="226.5" y1="3" x2="226.5" y2="847" stroke="#333333"/>
<line x1="245.5" y1="3" x2="245.5" y2="847" stroke="#333333"/>
<line x1="264.5" y1="3" x2="264.5" y2="847" stroke="#333333"/>
<line x1="283.5" y1="3" x2="283.5" y2="847" stroke="#333333"/>
<line x1="302.5" y1="3" x2="302.5" y2="847" stroke="#333333"/>
<line x1="321.5" y1="2" x2="321.5" y2="847" stroke="#333333"/>
</svg>
