<svg width="21" height="21" viewBox="0 0 21 21" fill="none" xmlns="http://www.w3.org/2000/svg">
<path d="M10.4993 1.75C9.35021 1.75 8.21239 1.97633 7.15079 2.41605C6.08919 2.85578 5.1246 3.5003 4.31209 4.31282C2.67114 5.95376 1.74927 8.17936 1.74927 10.5C1.74162 12.5205 2.44122 14.48 3.72677 16.0387L1.97677 17.7887C1.85536 17.9118 1.77311 18.068 1.74041 18.2378C1.70771 18.4075 1.72602 18.5832 1.79302 18.7425C1.8657 18.8999 1.98351 19.0322 2.13151 19.1226C2.27951 19.2129 2.45102 19.2573 2.62427 19.25H10.4993C12.8199 19.25 15.0455 18.3281 16.6865 16.6872C18.3274 15.0462 19.2493 12.8206 19.2493 10.5C19.2493 8.17936 18.3274 5.95376 16.6865 4.31282C15.0455 2.67187 12.8199 1.75 10.4993 1.75ZM10.4993 17.5H4.73302L5.54677 16.6862C5.70974 16.5223 5.80122 16.3005 5.80122 16.0694C5.80122 15.8382 5.70974 15.6164 5.54677 15.4525C4.40103 14.308 3.68755 12.8017 3.52788 11.1902C3.3682 9.57867 3.77222 7.96163 4.6711 6.61458C5.56997 5.26753 6.90809 4.27381 8.45747 3.80273C10.0069 3.33164 11.6716 3.41233 13.1682 4.03105C14.6648 4.64977 15.9005 5.76824 16.6649 7.1959C17.4293 8.62357 17.675 10.2721 17.3603 11.8606C17.0455 13.4492 16.1897 14.8794 14.9386 15.9077C13.6876 16.936 12.1187 17.4987 10.4993 17.5Z" fill="#333333"/>
</svg>
